# xmcd
#
# Track frame offsets: 
#        150
#        16902
#        28992
#        42592
#        57627
#        73972
#        94345
#        116125
#        127800
#        140835
#        166345
#        180862
#        193140
#        214022
#        227775
#
# Disc length: 3588 seconds
#
# Revision: 0
# Processed by: cddbd v1.5.2PL0 Copyright (c) Steve Scherf et al.
# Submitted via: ExactAudioCopy v0.95b4
#
DISCID=e40e020f
DTITLE=Various Artist - ΤΑ ΝΕΑ Παίζουν JAZZ and BLUES CD1
DYEAR=1998
DGENRE=Jazz
TTITLE0=HIGH SOSIETY CALYPSO
TTITLE1=BENNY'S BUGLE
TTITLE2=ALL OF ME
TTITLE3=NEW ORLEANS
TTITLE4=BEGIN THE BEGUINE
TTITLE5=CHERRY
TTITLE6=WEST END BLUES
TTITLE7=GILLY
TTITLE8=GOD BLESS THE CHILD
TTITLE9=BACK O'TOWN BLUES
TTITLE10=ANDALUCIA
TTITLE11=AM I BLUE
TTITLE12=DANNY BOY
TTITLE13=BREAKFAST FEUD
TTITLE14=GO HOME
EXTD=
EXTT0=
EXTT1=
EXTT2=
EXTT3=
EXTT4=
EXTT5=
EXTT6=
EXTT7=
EXTT8=
EXTT9=
EXTT10=
EXTT11=
EXTT12=
EXTT13=
EXTT14=
PLAYORDER=
